<svg width="354" height="111" viewBox="0 0 354 111" fill="none" xmlns="http://www.w3.org/2000/svg">
<path d="M72.2781 18.5555L60.6513 37.0524L60.6205 37L60.5897 37.0524L48.9629 18.5555L60.6205 0L72.2781 18.5555Z" fill="#5271FF"/>
<path d="M55.6023 76.1032L42.7897 96.5087H0L39.1153 34.25L50.7298 52.7438L36.057 76.1032H55.6023Z" fill="#1B1B1B"/>
<path d="M121.245 96.5087H98.0033L85.1815 76.1032L70.5117 52.7469L82.1324 34.25L121.245 96.5087Z" fill="#5271FF"/>
<g clip-path="url(#clip0_606_6)">
<path d="M131.002 95.5834V47.5428H159.947V53.2966H137.719V67.785H157.454V73.4694H137.719V95.5834H131.002ZM164.825 77.6288C164.825 74.44 165.286 71.6671 166.209 69.3101C167.133 66.9069 168.356 64.9197 169.879 63.3484C171.403 61.7771 173.157 60.5986 175.142 59.8129C177.127 59.0273 179.159 58.6344 181.236 58.6344C186.083 58.6344 189.799 60.1596 192.385 63.2097C194.97 66.2137 196.263 70.8121 196.263 77.0051C196.263 77.2823 196.263 77.652 196.263 78.1141C196.263 78.5301 196.239 78.9229 196.193 79.2926H171.541C171.819 83.0361 172.903 85.8783 174.796 87.8193C176.689 89.7602 179.643 90.7308 183.66 90.7308C185.922 90.7308 187.814 90.5458 189.338 90.1761C190.907 89.7602 192.085 89.3674 192.869 88.9977L193.77 94.4049C192.985 94.8209 191.6 95.2599 189.615 95.7221C187.676 96.1843 185.46 96.4153 182.967 96.4153C179.828 96.4153 177.104 95.9531 174.796 95.0287C172.534 94.0584 170.664 92.7412 169.187 91.0774C167.71 89.4136 166.602 87.4496 165.863 85.1848C165.171 82.8742 164.825 80.3554 164.825 77.6288ZM189.545 74.0935C189.592 71.1818 188.853 68.8018 187.33 66.9532C185.852 65.0584 183.798 64.1109 181.167 64.1109C179.689 64.1109 178.374 64.4113 177.22 65.0121C176.112 65.5667 175.165 66.3062 174.38 67.2304C173.596 68.1548 172.973 69.2177 172.511 70.4193C172.095 71.6209 171.819 72.8457 171.68 74.0935H189.545ZM211.538 59.5356H225.179V64.9428H211.538V81.5801C211.538 83.3826 211.676 84.8845 211.953 86.0861C212.23 87.2414 212.646 88.1658 213.2 88.8589C213.754 89.5061 214.446 89.9683 215.277 90.2455C216.108 90.5227 217.077 90.6615 218.185 90.6615C220.124 90.6615 221.671 90.4537 222.825 90.0377C224.025 89.5755 224.856 89.2521 225.318 89.0671L226.564 94.4049C225.918 94.7284 224.787 95.1212 223.171 95.5834C221.555 96.0918 219.709 96.3459 217.632 96.3459C215.185 96.3459 213.154 96.0456 211.538 95.4446C209.968 94.7978 208.699 93.8503 207.729 92.6024C206.76 91.3546 206.067 89.8296 205.652 88.0274C205.282 86.1786 205.098 84.0527 205.098 81.6495V49.4839L211.538 48.3747V59.5356ZM248.145 96.4153C245.237 96.4153 242.674 95.9531 240.459 95.0287C238.289 94.1046 236.442 92.8105 234.919 91.1468C233.442 89.483 232.334 87.5189 231.595 85.2542C230.856 82.9436 230.487 80.4017 230.487 77.6288C230.487 74.856 230.879 72.3141 231.664 70.0033C232.495 67.6926 233.649 65.7054 235.127 64.0416C236.604 62.3316 238.404 61.0145 240.528 60.0902C242.697 59.1197 245.098 58.6344 247.729 58.6344C249.345 58.6344 250.961 58.7731 252.577 59.0504C254.192 59.3277 255.739 59.7667 257.216 60.3675L255.762 65.844C254.792 65.3819 253.661 65.0121 252.369 64.7348C251.122 64.4575 249.784 64.3189 248.352 64.3189C244.752 64.3189 241.982 65.4512 240.043 67.7157C238.15 69.9803 237.204 73.2847 237.204 77.6288C237.204 79.5698 237.412 81.3492 237.827 82.9667C238.289 84.5842 238.981 85.9708 239.904 87.1261C240.874 88.2814 242.097 89.1827 243.575 89.8296C245.052 90.4305 246.852 90.7308 248.976 90.7308C250.684 90.7308 252.23 90.569 253.615 90.2455C255 89.9221 256.085 89.5755 256.87 89.2058L257.77 94.6128C257.401 94.844 256.87 95.0749 256.177 95.3062C255.485 95.4909 254.7 95.6528 253.823 95.7912C252.946 95.9762 251.999 96.115 250.984 96.2071C250.014 96.3459 249.068 96.4153 248.145 96.4153ZM264.684 95.5834V42.8982L271.124 41.7891V60.2289C272.324 59.7667 273.594 59.4201 274.932 59.189C276.317 58.9117 277.679 58.7731 279.018 58.7731C281.88 58.7731 284.258 59.189 286.15 60.0209C288.043 60.8066 289.543 61.9388 290.651 63.4177C291.805 64.8504 292.613 66.5834 293.075 68.6169C293.537 70.6504 293.768 72.8919 293.768 75.3413V95.5834H287.327V76.7276C287.327 74.5094 287.166 72.6144 286.843 71.0432C286.566 69.4719 286.081 68.201 285.389 67.2304C284.696 66.2599 283.773 65.5667 282.619 65.1508C281.465 64.6886 280.033 64.4575 278.325 64.4575C277.633 64.4575 276.917 64.5038 276.179 64.5962C275.44 64.6886 274.725 64.8042 274.032 64.9428C273.386 65.0352 272.786 65.1508 272.232 65.2894C271.724 65.428 271.355 65.5436 271.124 65.636V95.5834H264.684Z" fill="black"/>
<path d="M310.683 95.583H304.243V59.5352H310.683V95.583ZM307.428 53.0189C306.274 53.0189 305.282 52.6492 304.451 51.9097C303.666 51.1241 303.273 50.0842 303.273 48.7902C303.273 47.4962 303.666 46.4794 304.451 45.74C305.282 44.9543 306.274 44.5615 307.428 44.5615C308.582 44.5615 309.552 44.9543 310.337 45.74C311.168 46.4794 311.583 47.4962 311.583 48.7902C311.583 50.0842 311.168 51.1241 310.337 51.9097C309.552 52.6492 308.582 53.0189 307.428 53.0189ZM327.782 59.5352H341.424V64.9424H327.782V81.5797C327.782 83.3822 327.92 84.8841 328.197 86.0857C328.475 87.241 328.89 88.1654 329.444 88.8585C329.998 89.5057 330.69 89.9679 331.521 90.2451C332.352 90.5223 333.322 90.661 334.43 90.661C336.368 90.661 337.915 90.4532 339.069 90.0373C340.269 89.5751 341.1 89.2516 341.562 89.0666L342.808 94.4045C342.162 94.7279 341.031 95.1208 339.415 95.583C337.8 96.0914 335.953 96.3455 333.875 96.3455C331.429 96.3455 329.398 96.0451 327.782 95.4442C326.212 94.7973 324.943 93.8498 323.973 92.602C323.004 91.3542 322.312 89.8291 321.896 88.0269C321.527 86.1782 321.342 84.0522 321.342 81.6491V49.4834L327.782 48.3743V59.5352Z" fill="#5271FF"/>
</g>
<defs>
<clipPath id="clip0_606_6">
<rect width="212.208" height="54.8833" fill="white" transform="translate(130.898 41.625)"/>
</clipPath>
</defs>
</svg>
